<svg width="258" height="58" viewBox="0 0 258 58" fill="none" xmlns="http://www.w3.org/2000/svg">
<g clip-path="url(#clip0)" filter="url(#filter0_d)">
<path d="M111.307 22.0488L107.685 38.6822H98.2489L101.871 22.0488C102.155 20.7414 101.99 20.5004 100.653 20.5004H97.2468C95.9182 20.5004 95.64 20.7414 95.359 22.0155C95.359 22.0155 95.359 22.0377 95.359 22.0488L91.7367 38.6822H82.2919L85.9171 22.0488C86.201 20.7414 86.0363 20.5004 84.6964 20.5004H81.2898C79.9499 20.5004 79.6802 20.7441 79.3963 22.0488L75.7712 38.6822H66.335L71.8962 13.149H79.561L80.776 15.3428C81.4749 14.6247 82.321 14.0583 83.2591 13.6803C84.1972 13.3023 85.2063 13.1213 86.2208 13.149H88.1768C91.8672 13.149 94.3569 14.714 95.2483 17.3593C96.8976 14.4176 99.2879 13.149 102.175 13.149H104.134C109.678 13.149 112.497 16.6419 111.307 22.0488Z" fill="#5965E0"/>
<path d="M140.084 22.0487L138.401 29.7824C137.223 35.1893 132.879 38.6821 127.329 38.6821H120.181C114.64 38.6821 111.821 35.1865 112.999 29.7796L114.682 22.0487C115.858 16.6418 120.201 13.1489 125.754 13.1489H132.913C138.443 13.1489 141.265 16.6418 140.084 22.0487ZM130.639 22.0487C130.923 20.7413 130.759 20.5003 129.422 20.5003H126.015C124.675 20.5003 124.405 20.7441 124.122 22.0487L122.435 29.7796C122.151 31.087 122.319 31.328 123.656 31.328H127.063C128.4 31.328 128.672 31.0842 128.956 29.7796L130.639 22.0487Z" fill="#5965E0"/>
<path d="M198.976 20.0156C198.631 21.467 197.797 22.7639 196.608 23.6996L191.802 27.5775C190.65 28.523 189.2 29.0548 187.695 29.0843H181.04L180.89 29.7685C180.606 31.0759 180.771 31.3169 182.111 31.3169H196.509L194.908 38.671H178.625C173.083 38.671 170.264 35.1754 171.442 29.7685L173.126 22.0376C174.304 16.6307 178.647 13.1378 184.197 13.1378H191.362C196.89 13.1489 199.748 16.459 198.976 20.0156ZM189.091 22.0487C189.375 20.7413 189.211 20.5003 187.871 20.5003H184.464C183.13 20.4975 182.846 20.744 182.562 22.0487L181.994 24.7106H187.615C187.867 24.7004 188.109 24.6102 188.304 24.4537C188.498 24.2972 188.635 24.083 188.694 23.8436L189.091 22.0487Z" fill="#5965E0"/>
<path d="M209.583 34.3471C209.061 36.7431 207.122 38.6849 204.19 38.6849C201.257 38.6849 200.167 36.7459 200.689 34.3471C201.212 31.9484 203.151 30.0122 206.083 30.0122C209.016 30.0122 210.097 31.9484 209.583 34.3471Z" fill="#4CD62B"/>
<path d="M229.83 13.1489L228.229 20.4975L224.255 38.6794H214.821L218.796 20.4975H214.086L215.69 13.1461L229.83 13.1489ZM222.824 8.38186C221.189 6.60911 221.688 3.56772 223.934 1.59276C226.179 -0.382197 229.328 -0.542853 230.971 1.23267C232.615 3.0082 232.107 6.04958 229.861 8.02454C227.616 9.9995 224.462 10.1602 222.824 8.38186Z" fill="#5965E0"/>
<path d="M244.972 16.8246L242.15 29.7796C241.866 31.087 242.031 31.328 243.368 31.328H249.236L247.635 38.6821H239.888C234.346 38.6821 231.525 35.1865 232.703 29.7796L235.524 16.8246H231.956L233.557 9.47044H237.134L238.446 3.44861H247.89L246.579 9.47044H254.005L252.395 16.8246H244.972Z" fill="#5965E0"/>
<path d="M29.5092 3.745H41.4834L31.522 50H19.5479L29.5092 3.745Z" fill="#5965E0"/>
<path d="M47.0786 3.745H59.0527L51.2914 39.9868H39.3145L47.0786 3.745Z" fill="#5965E0"/>
<path d="M11.7642 3.745H23.7383L15.9769 39.9868H4L11.7642 3.745Z" fill="#5965E0"/>
<path d="M175.026 13.1489L157.531 38.6821H147.879L141.497 13.1489H151.833L154.612 29.9153L164.69 13.1628L175.026 13.1489Z" fill="#5965E0"/>
</g>
<defs>
<filter id="filter0_d" x="0" y="0" width="258" height="58" filterUnits="userSpaceOnUse" color-interpolation-filters="sRGB">
<feFlood flood-opacity="0" result="BackgroundImageFix"/>
<feColorMatrix in="SourceAlpha" type="matrix" values="0 0 0 0 0 0 0 0 0 0 0 0 0 0 0 0 0 0 127 0"/>
<feOffset dy="4"/>
<feGaussianBlur stdDeviation="2"/>
<feColorMatrix type="matrix" values="0 0 0 0 0 0 0 0 0 0 0 0 0 0 0 0 0 0 0.25 0"/>
<feBlend mode="normal" in2="BackgroundImageFix" result="effect1_dropShadow"/>
<feBlend mode="normal" in="SourceGraphic" in2="effect1_dropShadow" result="shape"/>
</filter>
<clipPath id="clip0">
<rect width="250" height="50" fill="white" transform="translate(4)"/>
</clipPath>
</defs>
</svg>
